# xmcd
#
# Track frame offsets: 
#        151
#        18204
#        39105
#        58418
#        74579
#        92562
#        108305
#        121584
#        140069
#        156612
#        172479
#        188218
#        205723
#        223920
#
# Disc length: 3227 seconds
#
# Revision: 0
# Processed by: cddbd v1.5.1PL2 Copyright (c) Steve Scherf et al.
# Submitted via: ExactAudioCopy v0.95b4
#
DISCID=d40c990e
DTITLE=ปอยฝ้าย  มาลัยพร - ฝ้าย.. ตลับทอง
DYEAR=2003
DGENRE=Country
TTITLE0=ตลกอกหัก
TTITLE1=มือซอคนเศร้า
TTITLE2=ดอกกระเจียวลืมทุ่ง
TTITLE3=เบ๊คแฮมอิสาน
TTITLE4=รักจางที่ทางตัน
TTITLE5=ย่างช้อนท้าย
TTITLE6=ตัวสำรองยังคอย
TTITLE7=ปอยฝ้ายวอนแฟน
TTITLE8=ชุดดำสปายแดง
TTITLE9=สาวเจียระไน
TTITLE10=แก้วนี้แด่ที่รัก
TTITLE11=คนรักขอยหาย
TTITLE12=แม่ดอกไข่เน่า
TTITLE13=หวานใจปลายปากกา
EXTD=
EXTT0=
EXTT1=
EXTT2=
EXTT3=
EXTT4=
EXTT5=
EXTT6=
EXTT7=
EXTT8=
EXTT9=
EXTT10=
EXTT11=
EXTT12=
EXTT13=
PLAYORDER=
